<svg id="Layer_1" data-name="Layer 1" xmlns="http://www.w3.org/2000/svg" xmlns:xlink="http://www.w3.org/1999/xlink" viewBox="0 0 595.28 393.85"><defs><style>.cls-1{fill:url(#linear-gradient);}.cls-2{clip-path:url(#clip-path);}.cls-3{fill:#026863;}.cls-4{fill:#f6603c;}.cls-5{fill:#b9e9ea;}.cls-6{fill:#fb5e5e;}.cls-7,.cls-8,.cls-9{fill:#193f3e;}.cls-7,.cls-9{stroke:#193f3e;}.cls-10,.cls-7{stroke-linecap:round;}.cls-10,.cls-7,.cls-9{stroke-miterlimit:10;}.cls-7{stroke-width:31px;}.cls-10,.cls-9{stroke-width:5px;}.cls-10{fill:none;stroke:#fff;}</style><linearGradient id="linear-gradient" x1="137.51" y1="199.8" x2="457.77" y2="199.8" gradientUnits="userSpaceOnUse"><stop offset="0" stop-color="#38d3b0"/><stop offset="0.89" stop-color="#20b2bd"/></linearGradient><clipPath id="clip-path"><circle id="_Ellipse_" data-name="&lt;Ellipse&gt;" class="cls-1" cx="297.64" cy="199.8" r="160.13"/></clipPath></defs><title>Artboard 1 copy 2</title><circle id="_Ellipse_2" data-name="&lt;Ellipse&gt;" class="cls-1" cx="297.64" cy="199.8" r="160.13"/><g class="cls-2"><path class="cls-3" d="M233.48,349.24H180.54c-.87,0-1.74,0-2.61,0s-1.79-.35-1.87-1.36c-.1-1.29.81-1.79,1.93-1.6,2.67.44,2.64-1.14,2.64-3.08q-.06-29.64,0-59.28c0-2.06-.55-4.47,3-4.11,1.48.15,1-1.46,1.37-2.24,1.17-2.64,2.61-4.93,5.87-4.88,1.86,0,1.92-1,1.88-2.36-.06-2.23,0-4.47,0-6.71,0-1.07.18-2.08,1.56-2,1,.09,1.43.83,1.42,1.84,0,1.25,0,2.49,0,3.73-.1,2.89-.66,5.9,3.9,5.92,1.64,0,2.54,1.83,3.33,3.26s.63,3.95,3.65,3.71c1.2-.09,1.05,1.72,1.05,2.82,0,4.6.1,9.2,0,13.8,0,2,.61,2.54,2.54,2.48,4.72-.13,9.46-.2,14.17,0,2.72.13,3.58-.54,3.54-3.43-.17-12.8,0-25.6-.15-38.4,0-3.28.84-4.33,4.15-4.21,6.46.25,12.93.16,19.39,0,2.6,0,3.46.86,3.44,3.46-.11,11.31-.06,22.62,0,33.93,0,1.58-.72,3.5,2.32,3.42,2.77-.07,2.06-1.79,2.13-3.27a21.17,21.17,0,0,0,0-3c-.21-2.18.84-2.74,2.86-2.72,6.84.09,13.68.16,20.51,0,2.88-.08,3.56,1,3.54,3.67-.1,13.67-.05,27.34-.05,41V343.9c0,1.22-.3,2.54,1.75,2.4,1.22-.08,3.21-.6,3.08,1.5-.14,2.28-2.27,1.41-3.57,1.41C269.28,349.26,251.38,349.24,233.48,349.24Z"/><path class="cls-3" d="M204.63,314.56c0,9.56-.08,19.12.06,28.67,0,2.42-.59,3.18-3.06,3.09-5.2-.19-10.42-.15-15.63,0-2,.05-2.45-.61-2.45-2.52q.1-29.22,0-58.45c0-1.9.44-2.57,2.44-2.52,5.34.14,10.68.15,16,0,2.13-.06,2.7.61,2.68,2.7C204.57,295.2,204.63,304.88,204.63,314.56Z"/><path class="cls-3" d="M262.06,317.19c0-8.81.06-17.63-.05-26.44,0-2.06.46-2.78,2.63-2.71,5.33.16,10.67.11,16,0,1.76,0,2.33.47,2.32,2.29q-.09,26.82,0,53.64c0,1.77-.49,2.35-2.29,2.32-5.33-.11-10.68-.14-16,0-2.12.06-2.69-.57-2.66-2.67C262.12,334.82,262.06,326,262.06,317.19Z"/><path class="cls-3" d="M230.32,301.51c0-13.91.07-27.82-.06-41.74,0-2.7.54-3.73,3.45-3.58,5,.25,9.94.14,14.9,0,1.95,0,2.92.3,2.89,2.6-.1,10.81-.08,21.62,0,32.42,0,1.92-.53,2.67-2.53,2.59-3.22-.14-6.47.13-9.69-.09-3-.2-4.08.67-4,3.91.2,14.9.14,29.81.13,44.72,0,1.75.92,4-2.59,3.89-3.25-.07-2.43-2.09-2.43-3.76C230.3,328.85,230.32,315.18,230.32,301.51Z"/><path class="cls-3" d="M258.91,321.75c0,7.2-.08,14.41,0,21.61.05,2.23-.45,3.05-2.84,3-5.09-.19-10.19-.12-15.28,0-1.74,0-2.37-.44-2.37-2.29q0-22.54-.12-45.09c0-1.61.5-2.18,2.11-2.16,5.34.07,10.69.11,16,0,2.05-.05,2.47.79,2.45,2.64C258.86,306.84,258.91,314.29,258.91,321.75Z"/><path class="cls-3" d="M227.59,324.34c0,6.33-.09,12.67,0,19,0,2.18-.38,3.08-2.82,3-4.95-.2-9.93-.14-14.89,0-1.83.05-2.27-.55-2.26-2.3,0-13.16,0-26.33-.1-39.49,0-2.1.76-2.42,2.58-2.38,4.72.11,9.44.17,14.15,0,2.53-.1,3.44.53,3.35,3.23C227.45,311.67,227.59,318,227.59,324.34Z"/><path class="cls-3" d="M200.63,279.75h-13c.33-4.15,3.1-4.25,6.13-4.14S200.3,274.88,200.63,279.75Z"/><path class="cls-3" d="M201.69,318.29c-.15,1.26.47,3.12-1.48,3.24-2.15.13-1.57-1.83-1.52-3s-.83-3.43,1.48-3.43C202.06,315.08,201.57,317,201.69,318.29Z"/><path class="cls-3" d="M186.78,308.74c.2-1.22-.53-3.15,1.58-3.06s1.46,1.95,1.44,3.21.58,3.13-1.56,3S187,309.93,186.78,308.74Z"/><path class="cls-3" d="M192.62,318.2c.31-1.21-.6-3.2,1.54-3.14,1.93.05,1.54,1.9,1.53,3.19s.5,3.19-1.41,3.27C191.93,321.61,193,319.43,192.62,318.2Z"/><path class="cls-3" d="M189.84,337.25c-.2,1.18.55,3.11-1.6,3s-1.36-2-1.39-3.2-.57-3.15,1.52-3.07S189.69,336,189.84,337.25Z"/><path class="cls-3" d="M189.86,299.3c-.17,1.43.48,3.32-1.6,3.26s-1.42-1.95-1.41-3.17-.66-3.13,1.5-3.08S189.55,298.31,189.86,299.3Z"/><path class="cls-3" d="M201.69,290c-.14,1.25.44,3.14-1.44,3.22-2.37.12-1.51-2-1.57-3.29s-.54-3.11,1.47-3.06S201.61,288.68,201.69,290Z"/><path class="cls-3" d="M192.63,290.13c.3-1.22-.66-3.36,1.64-3.29,1.83.06,1.43,1.94,1.42,3.21s.44,3.07-1.49,3.15C192.09,293.28,192.89,291.35,192.63,290.13Z"/><path class="cls-3" d="M195.72,337.06c-.18,1.17.55,3-1.44,3.21-2.26.2-1.55-1.79-1.57-3S192,334.15,194,334,195.67,335.66,195.72,337.06Z"/><path class="cls-3" d="M201.69,337.09c-.19,1.14.55,3-1.44,3.18-2.26.2-1.56-1.79-1.57-3S198,334.15,200,334,201.64,335.66,201.69,337.09Z"/><path class="cls-3" d="M186.79,327.69c.27-1.15-.66-3.05,1.41-3.15s1.63,1.74,1.59,3,.66,3.05-1.39,3.16S187,328.91,186.79,327.69Z"/><path class="cls-3" d="M189.83,318.38c-.19,1.18.54,3.08-1.47,3.14s-1.54-1.85-1.5-3.07-.74-3.42,1.55-3.35C190.27,315.16,189.7,317.08,189.83,318.38Z"/><path class="cls-3" d="M198.6,308.77c.27-1.2-.6-3.17,1.55-3.09,1.94.07,1.52,1.91,1.5,3.2s.45,3.12-1.61,3.06S198.94,309.9,198.6,308.77Z"/><path class="cls-3" d="M195.72,309c-.14,1.21.4,3.08-1.69,3s-1.26-2-1.31-3.22-.62-3.15,1.51-3C196.15,305.79,195.61,307.64,195.72,309Z"/><path class="cls-3" d="M201.68,299.48c0,1.45.25,3.27-1.74,3.08s-1.25-2.1-1.26-3.32-.63-2.87,1.23-2.94C202.28,296.21,201.48,298.27,201.68,299.48Z"/><path class="cls-3" d="M192.64,299.31c.31-1.13-.67-3.14,1.59-3,2,.12,1.42,2,1.46,3.22s.36,3.14-1.64,3S192.91,300.52,192.64,299.31Z"/><path class="cls-3" d="M189.84,289.92c-.21,1.25.57,3.18-1.46,3.26s-1.53-1.84-1.53-3.09-.58-3.16,1.38-3.24S189.7,288.68,189.84,289.92Z"/><path class="cls-3" d="M201.69,327.74c-.1,1.3.33,3.12-1.73,3s-1.25-2.06-1.27-3.23-.74-3.13,1.53-2.94C202.17,324.7,201.54,326.51,201.69,327.74Z"/><path class="cls-3" d="M195.73,327.66c-.15,1.24.43,3.08-1.64,3s-1.37-2-1.37-3.12-.78-3.11,1.43-3.05C196.15,324.58,195.59,326.4,195.73,327.66Z"/><path class="cls-3" d="M268.19,299.49c0,1.6,0,3.2,0,4.8,0,.79-.3,1.52-1.17,1.63a1.45,1.45,0,0,1-1.74-1.47c-.06-3.56,0-7.13,0-10.69,0-.84.7-1.25,1.54-1.24s1.3.63,1.32,1.44C268.22,295.8,268.19,297.65,268.19,299.49Z"/><path class="cls-3" d="M279.56,299.22c0,1.6,0,3.21,0,4.81,0,.85-.11,1.82-1.28,1.91a1.49,1.49,0,0,1-1.67-1.58c-.08-3.44-.07-6.89,0-10.34a1.46,1.46,0,0,1,1.7-1.52c1,.06,1.2.81,1.23,1.55.06,1.72,0,3.45,0,5.17Z"/><path class="cls-3" d="M268.2,333.19c0,1.6,0,3.19,0,4.79,0,.93-.25,1.73-1.41,1.71a1.33,1.33,0,0,1-1.49-1.3c-.06-3.56-.08-7.12,0-10.68a1.38,1.38,0,0,1,1.43-1.39c1,0,1.47.74,1.48,1.71C268.21,329.75,268.2,331.47,268.2,333.19Z"/><path class="cls-3" d="M279.55,316.55c0,1.6,0,3.2,0,4.8,0,.89-.25,1.76-1.43,1.74a1.39,1.39,0,0,1-1.45-1.39c-.07-3.56-.06-7.13,0-10.7a1.34,1.34,0,0,1,1.46-1.34c1.2,0,1.42.83,1.44,1.72C279.59,313.1,279.56,314.83,279.55,316.55Z"/><path class="cls-3" d="M268.2,316.23c0,1.72,0,3.44,0,5.16,0,.94-.34,1.74-1.48,1.68a1.43,1.43,0,0,1-1.43-1.42c0-3.56,0-7.13,0-10.69,0-.83.64-1.28,1.51-1.28a1.25,1.25,0,0,1,1.35,1.38c0,1.72,0,3.44,0,5.17Z"/><path class="cls-3" d="M279.56,333.23c0,1.6,0,3.2,0,4.79,0,.9-.3,1.71-1.47,1.68a1.33,1.33,0,0,1-1.44-1.36c-.06-3.55-.07-7.11,0-10.67a1.43,1.43,0,0,1,2.86,0c.07,1.84,0,3.68,0,5.52Z"/><path class="cls-3" d="M274,316.34c0,1.72.06,3.45,0,5.17a1.47,1.47,0,0,1-1.66,1.56,1.38,1.38,0,0,1-1.26-1.54c0-3.44,0-6.89,0-10.33,0-.78.26-1.47,1.22-1.53a1.47,1.47,0,0,1,1.71,1.51C274,312.9,274,314.62,274,316.34Z"/><path class="cls-3" d="M271,332.88v-4.79c0-1,.34-1.75,1.41-1.77a1.4,1.4,0,0,1,1.49,1.34c.08,3.56.07,7.12,0,10.68a1.36,1.36,0,0,1-1.45,1.35c-1.18.07-1.45-.71-1.47-1.65C271,336.32,271,334.6,271,332.88Z"/><path class="cls-3" d="M274,299.31c0,1.48,0,2.95,0,4.43,0,1.05-.2,2.08-1.46,2.16s-1.53-1-1.54-2c0-3.2,0-6.4,0-9.6,0-.9.16-1.75,1.35-1.77a1.49,1.49,0,0,1,1.61,1.63c0,1.72,0,3.44,0,5.16Z"/><path class="cls-3" d="M242.52,284.41c0,1.72.06,3.44,0,5.16-.05.9-.46,1.67-1.58,1.65s-1.4-.88-1.41-1.77c0-3.31,0-6.63,0-9.94,0-.91.36-1.76,1.5-1.69s1.44.89,1.47,1.8C242.56,281.21,242.52,282.81,242.52,284.41Z"/><path class="cls-3" d="M236.79,284.71v4.48c0,1.08-.19,2.05-1.57,2-1.12,0-1.4-.83-1.4-1.79,0-3.23,0-6.46,0-9.69,0-1,.38-1.81,1.38-1.86,1.26-.06,1.61.89,1.6,2C236.78,281.48,236.79,283.1,236.79,284.71Z"/><path class="cls-3" d="M233.82,267.16c0-1.49,0-3,0-4.48,0-1.13.37-2.05,1.63-2,1,.07,1.36.89,1.35,1.88,0,3.24,0,6.47,0,9.7,0,1-.32,1.73-1.44,1.76s-1.51-.69-1.52-1.67C233.8,270.64,233.82,268.9,233.82,267.16Z"/><path class="cls-3" d="M242.53,267.73c0,1.48,0,2.95,0,4.43,0,1.06-.41,2-1.71,1.9-1.15-.06-1.3-1-1.31-1.87,0-3.19,0-6.39,0-9.58,0-.89.2-1.86,1.27-1.94,1.23-.1,1.71.81,1.74,1.9C242.56,264.29,242.53,266,242.53,267.73Z"/><path class="cls-3" d="M248.07,284.73c0,1.59,0,3.19,0,4.79,0,.92-.23,1.73-1.42,1.69a1.38,1.38,0,0,1-1.48-1.34c-.06-3.55-.07-7.11,0-10.67a1.37,1.37,0,0,1,1.46-1.36c1,0,1.44.76,1.45,1.73C248.07,281.29,248.06,283,248.07,284.73Z"/><path class="cls-3" d="M248.07,267.52c0,1.59,0,3.19,0,4.79,0,.9-.19,1.75-1.37,1.74a1.49,1.49,0,0,1-1.6-1.63c0-3.32,0-6.64,0-9.95,0-1,.47-1.74,1.46-1.77,1.31-.05,1.52,1,1.53,2C248.09,264.32,248.08,265.92,248.07,267.52Z"/><path class="cls-3" d="M243.84,318.45c-.29,1.14.55,3.13-1.49,3.07s-1.59-2.06-1.63-3.42-.2-3.11,1.72-3S243.62,317.2,243.84,318.45Z"/><path class="cls-3" d="M255.77,318.26c-.28,1.22.6,3.32-1.65,3.26-1.85,0-1.46-1.92-1.47-3.19s-.35-3.1,1.51-3.17C256.2,315.08,255.55,317,255.77,318.26Z"/><path class="cls-3" d="M249.84,318.3c-.32,1.29.51,3.27-1.52,3.22s-1.6-2-1.64-3.42-.19-3.11,1.73-3S249.49,317.23,249.84,318.3Z"/><path class="cls-3" d="M255.76,337.34c-.3,1.12.58,3.13-1.66,2.93-1.92-.18-1.4-2-1.44-3.27s-.27-3.17,1.71-3S255.52,336.07,255.76,337.34Z"/><path class="cls-3" d="M249.81,337.1c-.38,1.1.68,3.07-1.42,3.17s-1.69-1.74-1.69-3-.46-3.13,1.46-3.23C250.25,333.89,249.56,335.84,249.81,337.1Z"/><path class="cls-3" d="M243.82,337.33c-.25,1.08.5,2.87-1.3,2.94-2.26.09-1.74-1.92-1.79-3.3s-.23-3.16,1.72-3S243.61,336.07,243.82,337.33Z"/><path class="cls-3" d="M255.78,327.9c-.29,1.2.47,3.2-1.71,3-1.86-.19-1.41-2-1.41-3.31s-.31-3.12,1.75-2.93S255.42,326.75,255.78,327.9Z"/><path class="cls-3" d="M249.8,327.62c-.28,1.21.58,3.16-1.41,3.26s-1.75-1.71-1.7-3-.5-3.08,1.48-3.2C250.39,324.5,249.49,326.48,249.8,327.62Z"/><path class="cls-3" d="M243.9,327.69c-.37,1.34.48,3.34-1.7,3.17-1.86-.15-1.49-2-1.47-3.26s-.36-3.1,1.7-3S243.34,326.77,243.9,327.69Z"/><path class="cls-3" d="M243.86,308.91c-.3,1.2.47,3-1.39,3-2.29,0-1.67-2-1.74-3.34s-.19-3.17,1.76-3S243.53,307.8,243.86,308.91Z"/><path class="cls-3" d="M249.81,308.74c-.37,1.11.68,3.08-1.42,3.19s-1.69-1.73-1.69-3-.47-3.13,1.45-3.25C250.28,305.53,249.54,307.5,249.81,308.74Z"/><path class="cls-3" d="M252.61,309.05c.14-1.53-.35-3.4,1.62-3.39s1.48,1.94,1.45,3.17.7,3.12-1.46,3.11S252.91,310,252.61,309.05Z"/><path class="cls-3" d="M221.85,327.63c.21-1.16-.57-3.09,1.6-3s1.37,2,1.39,3.2.58,3.14-1.52,3S222,328.92,221.85,327.63Z"/><path class="cls-3" d="M219,327.71c-.17,1.45.44,3.36-1.68,3.16-1.94-.18-1.35-2-1.35-3.29s-.52-3.13,1.64-2.94S218.57,326.77,219,327.71Z"/><path class="cls-3" d="M218.93,308.89c-.22,1.17.57,3.12-1.59,3s-1.38-2-1.41-3.21-.53-3.13,1.54-3S218.74,307.63,218.93,308.89Z"/><path class="cls-3" d="M224.89,309c-.18,1.21.49,3.15-1.68,2.94-2-.2-1.27-2.08-1.32-3.31s-.42-3.15,1.65-2.95S224.7,307.74,224.89,309Z"/><path class="cls-3" d="M210,308.63c0-1.38-.2-3.05,1.51-3,2.33.1,1.42,2.18,1.49,3.48.06,1.1.54,2.88-1.38,2.81C209.29,311.85,210.26,309.78,210,308.63Z"/><path class="cls-3" d="M213.1,318.38c-.28,1.31.52,3.32-1.66,3.14-1.91-.15-1.39-2-1.42-3.31s-.3-3.19,1.67-3S212.78,317.28,213.1,318.38Z"/><path class="cls-3" d="M213.07,337c-.34,1.1.75,3.06-1.32,3.24s-1.75-1.66-1.73-3-.53-3.12,1.38-3.3C213.53,333.81,212.9,335.73,213.07,337Z"/><path class="cls-3" d="M219,337c-.27,1.26.62,3.19-1.47,3.24s-1.56-1.83-1.55-3.08-.61-3.12,1.43-3.17S218.72,335.86,219,337Z"/><path class="cls-3" d="M224.89,337.1c-.25,1.14.65,3.08-1.42,3.15s-1.59-1.8-1.58-3.06-.61-3.11,1.41-3.19S224.75,335.81,224.89,337.1Z"/><path class="cls-3" d="M213.07,327.66c-.27,1.21.64,3.15-1.41,3.24s-1.68-1.76-1.63-3.06-.56-3.1,1.47-3.2C213.73,324.54,212.76,326.53,213.07,327.66Z"/><path class="cls-3" d="M224.88,318.51c-.17,1.2.48,3.16-1.62,3-1.9-.15-1.35-2-1.37-3.3s-.42-3.17,1.61-3S224.73,317.23,224.88,318.51Z"/><path class="cls-3" d="M215.9,318.21c0-1.33-.3-3.06,1.4-3,2.25,0,1.52,2.09,1.57,3.43,0,1.15.41,2.92-1.35,2.89C215.26,321.46,216.11,319.39,215.9,318.21Z"/><path class="cls-3" d="M340.93,342.41h56.19c.93,0,1.85,0,2.77,0,1.07,0,1.9-.37,2-1.44.11-1.37-.86-1.9-2.05-1.7-2.83.46-2.81-1.21-2.8-3.26q.06-31.47,0-62.93c0-2.19.59-4.75-3.16-4.36-1.57.15-1.09-1.55-1.46-2.38-1.24-2.8-2.77-5.23-6.23-5.18-2,0-2-1-2-2.5.06-2.37,0-4.75,0-7.12,0-1.14-.2-2.22-1.66-2.09-1.07.09-1.52.88-1.5,2,0,1.32-.05,2.64,0,4,.09,3.06.7,6.25-4.15,6.28-1.74,0-2.7,1.95-3.53,3.46s-.67,4.19-3.88,3.94c-1.26-.1-1.11,1.82-1.11,3,0,4.89-.1,9.77,0,14.65.06,2.11-.64,2.69-2.7,2.63-5-.14-10-.22-15,0-2.9.14-3.81-.57-3.76-3.64.18-13.58,0-27.17.16-40.76,0-3.48-.89-4.6-4.41-4.46-6.85.26-13.72.17-20.58,0-2.75-.06-3.67.91-3.65,3.67.12,12,.07,24,0,36,0,1.68.77,3.72-2.45,3.64-2.95-.08-2.2-1.91-2.27-3.48a22.22,22.22,0,0,1,0-3.16c.22-2.32-.9-2.91-3.05-2.89-7.25.1-14.51.18-21.76,0-3.06-.08-3.79,1.06-3.76,3.9.11,14.51,0,29,0,43.54v15c0,1.29.32,2.69-1.85,2.54-1.3-.08-3.42-.63-3.27,1.6.15,2.41,2.41,1.48,3.79,1.49Q312.43,342.45,340.93,342.41Z"/><path class="cls-3" d="M371.55,305.6c0,10.14.09,20.28-.06,30.42,0,2.57.62,3.38,3.25,3.28,5.52-.2,11.06-.16,16.59,0,2.13,0,2.6-.65,2.6-2.67q-.12-31,0-62c0-2-.46-2.73-2.59-2.67-5.66.14-11.33.15-17,0-2.26-.07-2.86.64-2.84,2.86C371.62,285.05,371.55,295.32,371.55,305.6Z"/><path class="cls-3" d="M310.6,308.38c0-9.35-.07-18.71,0-28.06,0-2.18-.49-2.95-2.79-2.88-5.66.17-11.33.12-17,0-1.86,0-2.47.5-2.46,2.43q.11,28.46,0,56.93c0,1.88.52,2.5,2.43,2.46,5.66-.11,11.33-.15,17,0,2.24.06,2.85-.61,2.82-2.84C310.53,327.1,310.6,317.74,310.6,308.38Z"/><path class="cls-3" d="M344.29,291.75c0-14.77-.08-29.54.06-44.31,0-2.87-.57-4-3.66-3.8-5.26.27-10.55.14-15.82,0-2.07-.05-3.09.32-3.07,2.76.12,11.47.09,22.94,0,34.42,0,2,.56,2.83,2.68,2.74,3.42-.15,6.87.14,10.28-.09,3.19-.22,4.34.71,4.3,4.14-.22,15.82-.16,31.64-.14,47.47,0,1.86-1,4.22,2.74,4.13,3.45-.08,2.58-2.22,2.59-4Q344.32,313.5,344.29,291.75Z"/><path class="cls-3" d="M313.94,313.22c0,7.65.09,15.3-.06,22.94,0,2.37.49,3.24,3,3.14,5.4-.2,10.81-.13,16.22,0,1.85,0,2.51-.47,2.51-2.42q0-23.94.14-47.87c0-1.71-.53-2.31-2.25-2.29-5.67.07-11.34.11-17,0-2.18-.05-2.63.84-2.61,2.8C314,297.4,313.94,305.31,313.94,313.22Z"/><path class="cls-3" d="M347.18,316c0,6.72.1,13.45-.05,20.17-.05,2.31.4,3.27,3,3.16,5.26-.21,10.54-.15,15.81,0,1.94.05,2.4-.58,2.4-2.44q-.06-21,.1-41.91c0-2.23-.8-2.58-2.74-2.53-5,.11-10,.18-15,0-2.68-.11-3.65.57-3.55,3.43C347.33,302.52,347.18,309.25,347.18,316Z"/><path class="cls-3" d="M375.8,268.64h13.75c-.34-4.4-3.28-4.51-6.5-4.39S376.14,263.47,375.8,268.64Z"/><path class="cls-3" d="M374.67,309.56c.16,1.33-.49,3.31,1.57,3.43,2.29.14,1.67-1.95,1.62-3.22s.88-3.64-1.57-3.63C374.28,306.14,374.8,308.19,374.67,309.56Z"/><path class="cls-3" d="M390.49,299.42c-.2-1.3.57-3.35-1.67-3.25-2.08.09-1.55,2.07-1.52,3.41s-.62,3.32,1.65,3.22S390.23,300.68,390.49,299.42Z"/><path class="cls-3" d="M384.3,309.45c-.32-1.28.64-3.39-1.64-3.33-2,.06-1.63,2-1.62,3.39s-.53,3.39,1.49,3.47C385,313.07,383.94,310.76,384.3,309.45Z"/><path class="cls-3" d="M387.25,329.68c.22,1.25-.59,3.3,1.7,3.2s1.45-2.11,1.48-3.4.6-3.34-1.62-3.25S387.42,328.32,387.25,329.68Z"/><path class="cls-3" d="M387.23,289.39c.18,1.52-.51,3.53,1.7,3.47s1.51-2.07,1.49-3.37.7-3.32-1.59-3.27S387.56,288.34,387.23,289.39Z"/><path class="cls-3" d="M374.68,279.49c.14,1.32-.48,3.32,1.52,3.41,2.52.12,1.6-2.14,1.67-3.49s.57-3.3-1.56-3.25S374.76,278.13,374.68,279.49Z"/><path class="cls-3" d="M384.29,279.66c-.32-1.29.7-3.56-1.74-3.49-1.94.07-1.52,2.05-1.51,3.41s-.46,3.26,1.58,3.34C384.86,283,384,281,384.29,279.66Z"/><path class="cls-3" d="M381,329.47c.19,1.25-.59,3.23,1.52,3.41,2.41.21,1.66-1.9,1.67-3.15s.72-3.35-1.36-3.52S381.07,328,381,329.47Z"/><path class="cls-3" d="M374.68,329.5c.19,1.22-.59,3.2,1.52,3.38,2.4.21,1.65-1.9,1.67-3.15s.72-3.35-1.36-3.52S374.73,328,374.68,329.5Z"/><path class="cls-3" d="M390.49,319.53c-.29-1.22.7-3.24-1.49-3.35s-1.74,1.85-1.69,3.18-.71,3.24,1.47,3.36S390.27,320.82,390.49,319.53Z"/><path class="cls-3" d="M387.26,309.65c.2,1.25-.57,3.26,1.56,3.33s1.64-2,1.59-3.26.79-3.63-1.64-3.56C386.79,306.22,387.4,308.27,387.26,309.65Z"/><path class="cls-3" d="M378,299.45c-.28-1.28.64-3.37-1.64-3.28-2.06.07-1.62,2-1.6,3.39s-.47,3.32,1.72,3.25S377.59,300.65,378,299.45Z"/><path class="cls-3" d="M381,299.66c.15,1.29-.42,3.27,1.79,3.15s1.34-2.18,1.4-3.43.65-3.34-1.6-3.21C380.55,296.29,381.13,298.25,381,299.66Z"/><path class="cls-3" d="M374.68,289.59c.05,1.53-.26,3.47,1.86,3.27s1.32-2.23,1.33-3.52.67-3-1.31-3.13C374.05,286.11,374.9,288.3,374.68,289.59Z"/><path class="cls-3" d="M384.28,289.4c-.33-1.2.71-3.32-1.68-3.18-2.14.12-1.51,2.08-1.55,3.41s-.39,3.33,1.74,3.23S384,290.69,384.28,289.4Z"/><path class="cls-3" d="M387.25,279.44c.22,1.33-.6,3.37,1.55,3.46s1.62-2,1.62-3.28.62-3.36-1.46-3.44S387.4,278.12,387.25,279.44Z"/><path class="cls-3" d="M374.67,319.58c.11,1.38-.34,3.31,1.84,3.14s1.33-2.19,1.35-3.43.78-3.32-1.62-3.11C374.17,316.35,374.83,318.28,374.67,319.58Z"/><path class="cls-3" d="M381,319.5c.16,1.31-.45,3.27,1.74,3.22s1.45-2.08,1.45-3.31.83-3.3-1.51-3.24C380.56,316.23,381.15,318.16,381,319.5Z"/><path class="cls-3" d="M304.09,289.6c0,1.69,0,3.39,0,5.09,0,.84.32,1.61,1.24,1.73a1.54,1.54,0,0,0,1.85-1.56c.07-3.78,0-7.57,0-11.35,0-.89-.75-1.32-1.64-1.31s-1.38.67-1.4,1.52C304.06,285.68,304.09,287.64,304.09,289.6Z"/><path class="cls-3" d="M292,289.31c0,1.7,0,3.4,0,5.1,0,.91.12,1.94,1.36,2a1.58,1.58,0,0,0,1.78-1.67c.08-3.66.07-7.32,0-11a1.55,1.55,0,0,0-1.81-1.61c-1.05.06-1.27.86-1.3,1.64-.07,1.83,0,3.66,0,5.49Z"/><path class="cls-3" d="M304.08,325.36c0,1.7,0,3.4,0,5.09,0,1,.26,1.84,1.5,1.82a1.42,1.42,0,0,0,1.58-1.38q.1-5.67,0-11.34a1.48,1.48,0,0,0-1.52-1.48c-1.1,0-1.56.79-1.57,1.82C304.07,321.71,304.08,323.54,304.08,325.36Z"/><path class="cls-3" d="M292,307.7c0,1.7,0,3.41,0,5.1,0,.94.27,1.86,1.52,1.84a1.46,1.46,0,0,0,1.54-1.47c.07-3.78.07-7.57,0-11.35a1.43,1.43,0,0,0-1.55-1.43c-1.27,0-1.5.88-1.53,1.82C292,304,292,305.87,292,307.7Z"/><path class="cls-3" d="M304.08,307.36c0,1.83,0,3.66,0,5.48,0,1,.37,1.85,1.57,1.78a1.5,1.5,0,0,0,1.51-1.5q.09-5.69,0-11.35a1.41,1.41,0,0,0-1.6-1.36,1.34,1.34,0,0,0-1.44,1.47c0,1.82,0,3.65,0,5.48Z"/><path class="cls-3" d="M292,325.41c0,1.7,0,3.39,0,5.08,0,1,.31,1.82,1.55,1.79a1.42,1.42,0,0,0,1.53-1.45c.07-3.77.08-7.54,0-11.32a1.47,1.47,0,0,0-1.54-1.45,1.45,1.45,0,0,0-1.49,1.49c-.07,1.95,0,3.91,0,5.86Z"/><path class="cls-3" d="M298,307.48c0,1.83-.06,3.66,0,5.49a1.56,1.56,0,0,0,1.77,1.65,1.46,1.46,0,0,0,1.34-1.63c0-3.66,0-7.31,0-11,0-.82-.28-1.56-1.3-1.61A1.55,1.55,0,0,0,298,302C297.89,303.83,298,305.66,298,307.48Z"/><path class="cls-3" d="M301.11,325c0-1.7,0-3.39,0-5.09,0-1-.36-1.85-1.49-1.88a1.48,1.48,0,0,0-1.58,1.42c-.08,3.78-.07,7.56,0,11.34a1.45,1.45,0,0,0,1.54,1.44c1.25.07,1.54-.76,1.55-1.75C301.13,328.69,301.11,326.86,301.11,325Z"/><path class="cls-3" d="M297.92,289.41c0,1.56,0,3.13,0,4.7,0,1.11.22,2.2,1.56,2.29s1.62-1,1.63-2.14c0-3.39,0-6.79,0-10.18,0-1-.18-1.86-1.44-1.88a1.57,1.57,0,0,0-1.7,1.73c-.06,1.82,0,3.65,0,5.48Z"/><path class="cls-3" d="M331.34,273.59c0,1.82-.06,3.65,0,5.47.05,1,.49,1.78,1.68,1.76s1.48-.93,1.49-1.88c0-3.52,0-7,0-10.55,0-1-.39-1.87-1.59-1.79s-1.53.94-1.56,1.91C331.3,270.2,331.34,271.89,331.34,273.59Z"/><path class="cls-3" d="M337.42,273.91v4.75c0,1.15.19,2.18,1.66,2.14,1.19,0,1.49-.88,1.49-1.9,0-3.43,0-6.86,0-10.29,0-1.06-.4-1.92-1.46-2-1.34-.06-1.71.95-1.7,2.13C337.43,270.48,337.42,272.2,337.42,273.91Z"/><path class="cls-3" d="M340.57,255.28c0-1.58,0-3.17,0-4.75,0-1.2-.39-2.18-1.73-2.09-1.05.07-1.44.94-1.44,2,0,3.42,0,6.85,0,10.28,0,1,.34,1.84,1.53,1.88s1.61-.73,1.62-1.78C340.59,259,340.57,257.12,340.57,255.28Z"/><path class="cls-3" d="M331.33,255.89c0,1.56-.05,3.13,0,4.69,0,1.13.43,2.11,1.81,2,1.22-.07,1.38-1.05,1.39-2q0-5.08,0-10.17c0-.94-.21-2-1.35-2.06-1.3-.1-1.81.87-1.85,2C331.29,252.24,331.33,254.06,331.33,255.89Z"/><path class="cls-3" d="M325.45,273.93c0,1.69,0,3.39,0,5.08,0,1,.25,1.84,1.51,1.79a1.44,1.44,0,0,0,1.57-1.41c.06-3.78.08-7.55,0-11.33a1.47,1.47,0,0,0-1.54-1.45c-1.12,0-1.53.82-1.54,1.84C325.44,270.28,325.45,272.1,325.45,273.93Z"/><path class="cls-3" d="M325.44,255.66c0,1.7,0,3.39,0,5.09,0,1,.19,1.86,1.45,1.85a1.59,1.59,0,0,0,1.7-1.74c0-3.52,0-7,0-10.56,0-1-.51-1.84-1.55-1.88-1.4,0-1.61,1-1.62,2.16C325.43,252.27,325.44,254,325.44,255.66Z"/><path class="cls-3" d="M329.94,309.72c.3,1.21-.59,3.32,1.58,3.26s1.69-2.18,1.73-3.63.2-3.31-1.83-3.13S330.17,308.39,329.94,309.72Z"/><path class="cls-3" d="M317.27,309.52c.29,1.3-.64,3.53,1.76,3.46,2-.05,1.54-2,1.55-3.39s.38-3.29-1.6-3.36C316.82,306.14,317.51,308.18,317.27,309.52Z"/><path class="cls-3" d="M323.56,309.56c.35,1.37-.54,3.48,1.63,3.42s1.68-2.18,1.73-3.63.2-3.3-1.83-3.14S323.94,308.43,323.56,309.56Z"/><path class="cls-3" d="M317.28,329.77c.33,1.19-.61,3.32,1.77,3.11,2-.19,1.48-2.13,1.52-3.47s.29-3.36-1.81-3.19S317.53,328.43,317.28,329.77Z"/><path class="cls-3" d="M323.6,329.51c.4,1.17-.72,3.26,1.51,3.37s1.79-1.85,1.79-3.21.49-3.33-1.55-3.44C323.13,326.11,323.86,328.17,323.6,329.51Z"/><path class="cls-3" d="M330,329.76c.27,1.14-.53,3.05,1.38,3.12,2.4.09,1.86-2,1.91-3.5s.24-3.35-1.83-3.17S330.18,328.43,330,329.76Z"/><path class="cls-3" d="M317.26,319.75c.31,1.28-.5,3.4,1.81,3.16,2-.21,1.5-2.15,1.5-3.52s.33-3.31-1.85-3.11S317.64,318.53,317.26,319.75Z"/><path class="cls-3" d="M323.61,319.45c.29,1.29-.62,3.36,1.5,3.47s1.85-1.82,1.8-3.24.53-3.26-1.57-3.39C323,316.14,323.94,318.24,323.61,319.45Z"/><path class="cls-3" d="M329.87,319.53c.4,1.42-.51,3.55,1.81,3.36,2-.16,1.58-2.08,1.56-3.46s.38-3.29-1.81-3.15S330.47,318.55,329.87,319.53Z"/><path class="cls-3" d="M329.92,299.59c.31,1.27-.5,3.18,1.47,3.22,2.43,0,1.78-2.1,1.85-3.54s.2-3.36-1.87-3.14S330.27,298.42,329.92,299.59Z"/><path class="cls-3" d="M323.6,299.41c.4,1.19-.72,3.27,1.51,3.4s1.79-1.84,1.79-3.2.5-3.32-1.54-3.46C323.1,296,323.89,298.1,323.6,299.41Z"/><path class="cls-3" d="M320.63,299.75c-.15-1.63.36-3.62-1.73-3.61s-1.56,2.07-1.53,3.37-.74,3.31,1.55,3.3S320.31,300.75,320.63,299.75Z"/><path class="cls-3" d="M353.28,319.46c-.22-1.23.6-3.28-1.7-3.17s-1.45,2.11-1.48,3.4-.61,3.33,1.62,3.22S353.12,320.83,353.28,319.46Z"/><path class="cls-3" d="M356.35,319.55c.18,1.54-.46,3.57,1.79,3.36,2.05-.2,1.42-2.17,1.42-3.49s.57-3.33-1.74-3.13S356.75,318.55,356.35,319.55Z"/><path class="cls-3" d="M356.38,299.58c.23,1.24-.61,3.31,1.68,3.21s1.47-2.1,1.5-3.4.56-3.33-1.64-3.25S356.57,298.24,356.38,299.58Z"/><path class="cls-3" d="M350.05,299.67c.19,1.29-.52,3.35,1.78,3.12,2.1-.21,1.35-2.2,1.4-3.51s.45-3.34-1.75-3.13S350.25,298.35,350.05,299.67Z"/><path class="cls-3" d="M365.85,299.3c0-1.46.22-3.24-1.6-3.16-2.47.1-1.5,2.31-1.58,3.69-.06,1.16-.58,3.06,1.46,3C366.61,302.71,365.58,300.52,365.85,299.3Z"/><path class="cls-3" d="M362.57,309.65c.29,1.39-.56,3.52,1.76,3.33,2-.16,1.47-2.15,1.5-3.51s.33-3.39-1.77-3.24S362.9,308.48,362.57,309.65Z"/><path class="cls-3" d="M362.6,329.44c.36,1.17-.8,3.25,1.4,3.44s1.85-1.76,1.83-3.15.57-3.32-1.47-3.5C362.11,326,362.78,328.07,362.6,329.44Z"/><path class="cls-3" d="M356.35,329.42c.29,1.33-.65,3.39,1.57,3.44s1.65-1.94,1.64-3.27.64-3.31-1.51-3.37S356.59,328.2,356.35,329.42Z"/><path class="cls-3" d="M350.05,329.52c.26,1.21-.69,3.26,1.51,3.34s1.69-1.91,1.67-3.24.65-3.31-1.49-3.39S350.2,328.14,350.05,329.52Z"/><path class="cls-3" d="M362.59,319.49c.29,1.29-.68,3.35,1.5,3.44s1.78-1.86,1.73-3.25.59-3.28-1.56-3.38C361.89,316.18,362.92,318.29,362.59,319.49Z"/><path class="cls-3" d="M350.05,309.79c.19,1.27-.5,3.35,1.73,3.17,2-.16,1.43-2.16,1.45-3.5s.45-3.37-1.71-3.2S350.22,308.43,350.05,309.79Z"/><path class="cls-3" d="M359.59,309.47c-.06-1.41.32-3.25-1.49-3.21-2.38,0-1.61,2.22-1.67,3.64,0,1.23-.43,3.1,1.44,3.06C360.27,312.92,359.36,310.72,359.59,309.47Z"/><path class="cls-3" d="M186,362.69h-56.2c-.92,0-1.85,0-2.77,0s-1.89-.37-2-1.44c-.11-1.37.86-1.9,2-1.7,2.83.46,2.81-1.21,2.81-3.26q-.07-31.47,0-62.93c0-2.19-.58-4.75,3.17-4.36,1.57.15,1.08-1.55,1.45-2.38,1.25-2.8,2.77-5.23,6.24-5.18,2,0,2-1,2-2.5-.06-2.37,0-4.75,0-7.12,0-1.14.19-2.22,1.65-2.09,1.08.09,1.52.88,1.51,1.95,0,1.32,0,2.64,0,4-.1,3.06-.7,6.25,4.14,6.28,1.74,0,2.7,1.95,3.54,3.46.91,1.66.66,4.19,3.87,3.94,1.27-.1,1.12,1.82,1.12,3,0,4.89.1,9.77,0,14.65-.07,2.11.63,2.69,2.69,2.63,5-.14,10-.22,15,0,2.89.13,3.8-.58,3.76-3.65-.19-13.58,0-27.17-.16-40.76,0-3.47.89-4.6,4.41-4.46,6.85.26,13.71.17,20.57,0,2.76-.06,3.68.91,3.65,3.67-.12,12-.06,24,0,36,0,1.68-.76,3.72,2.46,3.64,2.94-.08,2.19-1.91,2.27-3.48a23.8,23.8,0,0,0,0-3.16c-.22-2.32.89-2.91,3-2.89,7.25.1,14.51.18,21.76,0,3.06-.09,3.79,1.05,3.77,3.89-.12,14.51,0,29,0,43.54q0,7.51,0,15c0,1.29-.32,2.69,1.86,2.54,1.29-.08,3.41-.63,3.27,1.6-.15,2.41-2.41,1.49-3.79,1.49Q214.48,362.73,186,362.69Z"/><path class="cls-3" d="M155.36,325.88c0,10.14-.09,20.28.06,30.42,0,2.57-.62,3.38-3.24,3.28-5.53-.2-11.07-.16-16.6,0-2.12.06-2.6-.65-2.59-2.67q.1-31,0-62c0-2,.46-2.73,2.59-2.67,5.66.14,11.33.15,17,0,2.26-.07,2.86.64,2.84,2.86C155.3,305.33,155.36,315.6,155.36,325.88Z"/><path class="cls-3" d="M216.31,328.67c0-9.36.07-18.72-.05-28.07,0-2.18.49-3,2.79-2.88,5.67.17,11.34.12,17,0,1.87,0,2.47.5,2.47,2.43q-.11,28.45,0,56.93c0,1.88-.51,2.5-2.43,2.46-5.66-.11-11.33-.15-17,0-2.25.06-2.86-.61-2.83-2.84C216.39,347.38,216.31,338,216.31,328.67Z"/><path class="cls-3" d="M182.63,312c0-14.77.07-29.54-.07-44.31,0-2.87.57-4,3.67-3.8,5.26.27,10.54.14,15.81,0,2.07,0,3.1.32,3.07,2.76-.11,11.47-.09,22.94,0,34.42,0,2-.57,2.83-2.69,2.74-3.42-.15-6.86.14-10.28-.09-3.18-.22-4.34.71-4.29,4.14.21,15.82.15,31.64.14,47.47,0,1.86,1,4.22-2.75,4.13-3.45-.08-2.58-2.22-2.58-4C182.61,341,182.63,326.53,182.63,312Z"/><path class="cls-3" d="M213,333.5c0,7.65-.1,15.3.05,22.94.05,2.37-.48,3.24-3,3.14-5.4-.2-10.81-.13-16.21,0-1.86,0-2.52-.47-2.52-2.42q0-23.94-.13-47.87c0-1.71.53-2.31,2.24-2.29,5.67.07,11.35.11,17,0,2.18-.05,2.63.84,2.61,2.8C212.93,317.68,213,325.59,213,333.5Z"/><path class="cls-3" d="M179.73,336.25c0,6.72-.09,13.45.05,20.17.05,2.31-.4,3.27-3,3.16-5.27-.21-10.55-.15-15.82,0-1.93.05-2.4-.58-2.39-2.44,0-14,0-27.94-.11-41.91,0-2.23.81-2.58,2.74-2.53,5,.11,10,.18,15,0,2.69-.11,3.65.57,3.56,3.43C179.58,322.8,179.73,329.53,179.73,336.25Z"/><path class="cls-3" d="M151.12,288.92H137.36c.35-4.4,3.29-4.51,6.51-4.39S150.77,283.75,151.12,288.92Z"/><path class="cls-3" d="M152.24,329.84c-.16,1.33.49,3.31-1.57,3.43-2.28.14-1.67-1.95-1.62-3.22s-.88-3.64,1.58-3.63C152.64,326.43,152.11,328.47,152.24,329.84Z"/><path class="cls-3" d="M136.42,319.7c.21-1.3-.57-3.35,1.67-3.25,2.09.09,1.55,2.07,1.53,3.41s.61,3.32-1.66,3.22S136.69,321,136.42,319.7Z"/><path class="cls-3" d="M142.62,329.73c.32-1.28-.65-3.39,1.63-3.33,2.05.06,1.64,2,1.62,3.39s.53,3.39-1.49,3.47C141.89,333.35,143,331,142.62,329.73Z"/><path class="cls-3" d="M139.67,350c-.22,1.25.58,3.3-1.7,3.2s-1.45-2.11-1.48-3.4-.6-3.34,1.61-3.25S139.5,348.6,139.67,350Z"/><path class="cls-3" d="M139.68,309.67c-.18,1.52.51,3.53-1.69,3.47s-1.51-2.07-1.5-3.37-.7-3.32,1.59-3.27S139.36,308.63,139.68,309.67Z"/><path class="cls-3" d="M152.24,299.77c-.15,1.32.47,3.32-1.52,3.41-2.52.12-1.61-2.14-1.68-3.49s-.56-3.3,1.57-3.25S152.15,298.41,152.24,299.77Z"/><path class="cls-3" d="M142.62,299.94c.33-1.29-.7-3.56,1.74-3.49,1.95.07,1.53,2.05,1.52,3.41s.45,3.26-1.58,3.34C142.06,303.29,142.9,301.24,142.62,299.94Z"/><path class="cls-3" d="M145.91,349.75c-.2,1.25.58,3.23-1.53,3.41-2.4.21-1.65-1.9-1.67-3.15s-.72-3.35,1.36-3.52S145.85,348.27,145.91,349.75Z"/><path class="cls-3" d="M152.24,349.78c-.2,1.22.58,3.2-1.53,3.38-2.4.21-1.65-1.9-1.67-3.15s-.72-3.35,1.37-3.52S152.19,348.27,152.24,349.78Z"/><path class="cls-3" d="M136.43,339.81c.28-1.22-.7-3.24,1.49-3.35s1.73,1.85,1.69,3.18.7,3.24-1.47,3.36S136.65,341.1,136.43,339.81Z"/><path class="cls-3" d="M139.65,329.93c-.2,1.25.58,3.26-1.55,3.33s-1.65-2-1.6-3.26-.78-3.63,1.64-3.56C140.12,326.5,139.51,328.55,139.65,329.93Z"/><path class="cls-3" d="M149,319.73c.28-1.28-.64-3.37,1.65-3.28,2.06.07,1.61,2,1.59,3.39s.48,3.32-1.71,3.25S149.33,320.93,149,319.73Z"/><path class="cls-3" d="M145.91,319.94c-.16,1.29.42,3.27-1.8,3.15s-1.34-2.18-1.39-3.43-.66-3.34,1.6-3.21C146.36,316.57,145.79,318.53,145.91,319.94Z"/><path class="cls-3" d="M152.23,309.87c0,1.53.27,3.47-1.85,3.27s-1.32-2.23-1.33-3.52-.68-3.05,1.3-3.13C152.87,306.39,152,308.59,152.23,309.87Z"/><path class="cls-3" d="M142.63,309.68c.34-1.19-.71-3.32,1.69-3.18,2.13.12,1.51,2.08,1.55,3.41s.39,3.33-1.74,3.23S142.92,311,142.63,309.68Z"/><path class="cls-3" d="M139.67,299.72c-.23,1.33.6,3.37-1.55,3.46s-1.63-2-1.63-3.28-.62-3.36,1.47-3.44S139.52,298.4,139.67,299.72Z"/><path class="cls-3" d="M152.24,339.86c-.11,1.38.35,3.31-1.84,3.14s-1.33-2.18-1.34-3.42-.79-3.33,1.62-3.12C152.75,336.63,152.08,338.56,152.24,339.86Z"/><path class="cls-3" d="M145.91,339.78c-.16,1.31.46,3.27-1.73,3.22s-1.46-2.08-1.46-3.31-.83-3.3,1.52-3.24C146.36,336.51,145.76,338.44,145.91,339.78Z"/><path class="cls-3" d="M222.83,309.88c0,1.69,0,3.39,0,5.09,0,.84-.32,1.61-1.23,1.73a1.55,1.55,0,0,1-1.86-1.56c-.06-3.78,0-7.57.05-11.35,0-.89.74-1.32,1.64-1.31s1.37.67,1.39,1.52C222.85,306,222.82,307.92,222.83,309.88Z"/><path class="cls-3" d="M234.9,309.59c0,1.7,0,3.4,0,5.1,0,.91-.11,1.94-1.35,2a1.58,1.58,0,0,1-1.78-1.67q-.12-5.49,0-11a1.55,1.55,0,0,1,1.8-1.61c1,.06,1.28.86,1.31,1.64.06,1.83,0,3.66,0,5.49Z"/><path class="cls-3" d="M222.84,345.64c0,1.7,0,3.4,0,5.09,0,1-.27,1.84-1.5,1.82a1.43,1.43,0,0,1-1.59-1.38q-.09-5.67,0-11.34a1.48,1.48,0,0,1,1.52-1.48c1.11,0,1.56.79,1.58,1.82C222.85,342,222.83,343.82,222.84,345.64Z"/><path class="cls-3" d="M234.89,328c0,1.7,0,3.41,0,5.1,0,.94-.26,1.86-1.52,1.84a1.47,1.47,0,0,1-1.54-1.47c-.07-3.78-.06-7.57,0-11.35a1.42,1.42,0,0,1,1.55-1.43c1.27,0,1.5.88,1.52,1.82C234.93,324.32,234.89,326.15,234.89,328Z"/><path class="cls-3" d="M222.83,327.64c0,1.83,0,3.66,0,5.48,0,1-.36,1.85-1.57,1.78a1.5,1.5,0,0,1-1.51-1.5c-.05-3.78,0-7.57,0-11.35,0-.88.69-1.36,1.61-1.36a1.33,1.33,0,0,1,1.43,1.47c0,1.82,0,3.65,0,5.48Z"/><path class="cls-3" d="M234.89,345.69c0,1.7,0,3.39,0,5.08,0,1-.31,1.82-1.56,1.79a1.42,1.42,0,0,1-1.53-1.45c-.06-3.77-.07-7.54,0-11.32a1.51,1.51,0,0,1,3,0c.08,1.95,0,3.91,0,5.86Z"/><path class="cls-3" d="M229,327.76c0,1.83.06,3.66,0,5.49a1.55,1.55,0,0,1-1.76,1.65,1.45,1.45,0,0,1-1.34-1.63c0-3.66,0-7.31,0-11,0-.82.28-1.56,1.3-1.61a1.55,1.55,0,0,1,1.81,1.59C229,324.11,229,325.94,229,327.76Z"/><path class="cls-3" d="M225.81,345.32c0-1.7,0-3.39,0-5.09,0-1,.36-1.85,1.5-1.88a1.5,1.5,0,0,1,1.58,1.42c.08,3.78.07,7.56,0,11.34a1.46,1.46,0,0,1-1.55,1.44c-1.25.07-1.53-.76-1.55-1.75C225.78,349,225.8,347.14,225.81,345.32Z"/><path class="cls-3" d="M229,309.69c0,1.56,0,3.13,0,4.7,0,1.11-.22,2.2-1.55,2.29s-1.63-1-1.63-2.14c0-3.39,0-6.79,0-10.18,0-1,.18-1.86,1.44-1.88a1.57,1.57,0,0,1,1.7,1.73c.07,1.82,0,3.65,0,5.48Z"/><path class="cls-3" d="M195.57,293.87c0,1.83.07,3.65,0,5.47,0,1-.49,1.78-1.67,1.76s-1.48-.93-1.49-1.88c0-3.51,0-7,0-10.55,0-1,.38-1.87,1.58-1.79s1.53.94,1.57,1.91C195.62,290.48,195.57,292.18,195.57,293.87Z"/><path class="cls-3" d="M189.5,294.19v4.75c0,1.15-.2,2.18-1.67,2.14-1.19,0-1.49-.88-1.49-1.9,0-3.43,0-6.86,0-10.29,0-1.06.41-1.92,1.47-2,1.34-.06,1.71.95,1.7,2.13C189.49,290.76,189.5,292.48,189.5,294.19Z"/><path class="cls-3" d="M186.34,275.56c0-1.58,0-3.17,0-4.75,0-1.2.39-2.18,1.73-2.09,1.05.07,1.45.94,1.44,2,0,3.43,0,6.85,0,10.28,0,1-.34,1.84-1.53,1.88s-1.6-.73-1.61-1.78C186.33,279.25,186.34,277.41,186.34,275.56Z"/><path class="cls-3" d="M195.59,276.17c0,1.57,0,3.13,0,4.69,0,1.13-.43,2.11-1.82,2-1.21-.07-1.38-1.05-1.38-2q0-5.1,0-10.18c0-.94.22-2,1.35-2.06,1.31-.1,1.82.87,1.85,2C195.62,272.52,195.58,274.34,195.59,276.17Z"/><path class="cls-3" d="M201.46,294.21c0,1.69,0,3.39,0,5.08,0,1-.25,1.84-1.51,1.79a1.44,1.44,0,0,1-1.57-1.41c-.06-3.77-.07-7.55,0-11.33a1.48,1.48,0,0,1,1.55-1.45c1.12,0,1.53.82,1.54,1.84C201.47,290.56,201.46,292.38,201.46,294.21Z"/><path class="cls-3" d="M201.47,275.94c0,1.7,0,3.39,0,5.09,0,1-.19,1.86-1.45,1.85a1.58,1.58,0,0,1-1.69-1.74c0-3.52,0-7,0-10.56,0-1,.51-1.84,1.56-1.88,1.39-.05,1.61,1,1.61,2.16C201.49,272.55,201.48,274.25,201.47,275.94Z"/><path class="cls-3" d="M197,330c-.31,1.21.58,3.32-1.59,3.26s-1.68-2.18-1.72-3.63-.21-3.31,1.83-3.13S196.74,328.67,197,330Z"/><path class="cls-3" d="M209.65,329.8c-.3,1.3.63,3.53-1.76,3.46-2-.05-1.55-2-1.56-3.39s-.37-3.29,1.61-3.36C210.09,326.42,209.4,328.46,209.65,329.8Z"/><path class="cls-3" d="M203.35,329.84c-.35,1.37.54,3.48-1.62,3.42s-1.69-2.18-1.73-3.63-.21-3.3,1.83-3.13S203,328.71,203.35,329.84Z"/><path class="cls-3" d="M209.63,350.05c-.32,1.19.62,3.32-1.76,3.11-2-.19-1.49-2.13-1.53-3.47s-.28-3.36,1.81-3.19S209.38,348.71,209.63,350.05Z"/><path class="cls-3" d="M203.31,349.79c-.4,1.17.73,3.26-1.51,3.37S200,351.32,200,350s-.48-3.33,1.56-3.44C203.79,346.39,203.05,348.45,203.31,349.79Z"/><path class="cls-3" d="M197,350c-.26,1.14.53,3-1.38,3.12-2.4.09-1.85-2-1.91-3.5s-.24-3.35,1.83-3.17S196.73,348.71,197,350Z"/><path class="cls-3" d="M209.65,340c-.31,1.28.5,3.4-1.81,3.16-2-.21-1.5-2.15-1.5-3.52s-.33-3.31,1.85-3.11S209.27,338.81,209.65,340Z"/><path class="cls-3" d="M203.31,339.73c-.3,1.29.61,3.36-1.5,3.47S200,341.38,200,340s-.53-3.26,1.57-3.39C203.93,336.42,203,338.52,203.31,339.73Z"/><path class="cls-3" d="M197,339.81c-.39,1.42.51,3.55-1.8,3.36-2-.16-1.58-2.08-1.56-3.46s-.38-3.29,1.8-3.15S196.45,338.83,197,339.81Z"/><path class="cls-3" d="M197,319.87c-.32,1.27.5,3.18-1.47,3.22-2.44,0-1.78-2.1-1.85-3.54s-.21-3.36,1.87-3.14S196.65,318.7,197,319.87Z"/><path class="cls-3" d="M203.32,319.69c-.4,1.19.71,3.27-1.51,3.4s-1.79-1.84-1.8-3.2-.49-3.32,1.54-3.45C203.81,316.29,203,318.38,203.32,319.69Z"/><path class="cls-3" d="M206.28,320c.15-1.63-.36-3.62,1.73-3.61s1.57,2.07,1.54,3.37.74,3.31-1.55,3.3S206.61,321,206.28,320Z"/><path class="cls-3" d="M173.63,339.74c.23-1.23-.6-3.28,1.71-3.17s1.45,2.11,1.47,3.4.62,3.33-1.62,3.22S173.79,341.11,173.63,339.74Z"/><path class="cls-3" d="M170.56,339.83c-.18,1.54.47,3.57-1.79,3.36-2.05-.2-1.42-2.17-1.42-3.49s-.56-3.33,1.74-3.13S170.16,338.83,170.56,339.83Z"/><path class="cls-3" d="M170.54,319.86c-.24,1.24.6,3.31-1.68,3.21s-1.48-2.1-1.5-3.4-.56-3.33,1.63-3.25S170.34,318.52,170.54,319.86Z"/><path class="cls-3" d="M176.87,320c-.2,1.29.52,3.35-1.79,3.12-2.1-.21-1.34-2.2-1.39-3.51s-.46-3.34,1.74-3.13S176.66,318.63,176.87,320Z"/><path class="cls-3" d="M161.06,319.58c0-1.46-.21-3.24,1.61-3.16,2.46.1,1.5,2.31,1.57,3.69.07,1.16.58,3.06-1.46,3C160.3,323,161.33,320.8,161.06,319.58Z"/><path class="cls-3" d="M164.35,329.93c-.3,1.39.56,3.52-1.76,3.33-2-.16-1.48-2.15-1.51-3.51s-.32-3.38,1.77-3.24S164,328.76,164.35,329.93Z"/><path class="cls-3" d="M164.32,349.72c-.36,1.17.79,3.25-1.4,3.44s-1.85-1.76-1.83-3.15-.57-3.31,1.46-3.5C164.81,346.3,164.13,348.35,164.32,349.72Z"/><path class="cls-3" d="M170.56,349.71c-.29,1.32.65,3.38-1.56,3.43s-1.66-1.94-1.65-3.27-.64-3.31,1.52-3.37S170.32,348.48,170.56,349.71Z"/><path class="cls-3" d="M176.87,349.8c-.27,1.21.69,3.26-1.52,3.34s-1.68-1.91-1.66-3.24-.65-3.31,1.49-3.39S176.71,348.42,176.87,349.8Z"/><path class="cls-3" d="M164.32,339.77c-.29,1.29.68,3.35-1.5,3.44s-1.78-1.86-1.73-3.25-.59-3.28,1.56-3.38C165,336.46,164,338.57,164.32,339.77Z"/><path class="cls-3" d="M176.86,330.07c-.19,1.27.51,3.35-1.73,3.17-2-.16-1.43-2.16-1.45-3.5s-.45-3.37,1.71-3.2S176.69,328.71,176.86,330.07Z"/><path class="cls-3" d="M167.32,329.75c.06-1.41-.32-3.25,1.49-3.21,2.39,0,1.61,2.22,1.67,3.64.05,1.23.43,3.1-1.43,3.06C166.65,333.2,167.55,331,167.32,329.75Z"/><path class="cls-3" d="M423.77,349.88H480c.92,0,1.85,0,2.77,0s1.89-.36,2-1.44c.11-1.37-.86-1.9-2.05-1.7-2.83.47-2.8-1.21-2.8-3.26q.08-31.46,0-62.92c0-2.19.59-4.75-3.16-4.37-1.57.16-1.08-1.55-1.45-2.38-1.25-2.8-2.77-5.22-6.24-5.17-2,0-2-1.05-2-2.5.06-2.38,0-4.75,0-7.13,0-1.14-.19-2.21-1.65-2.09-1.08.09-1.53.88-1.51,2,0,1.31,0,2.63,0,3.95.1,3.07.7,6.26-4.15,6.28-1.73,0-2.69,1.95-3.53,3.47s-.67,4.19-3.87,3.94c-1.27-.1-1.12,1.82-1.12,3,0,4.88-.1,9.76,0,14.64.06,2.11-.64,2.69-2.69,2.64-5-.14-10-.22-15,0-2.89.14-3.8-.58-3.76-3.64.18-13.59,0-27.18.16-40.76.05-3.48-.89-4.6-4.41-4.47-6.85.26-13.72.17-20.57,0-2.76-.05-3.68.91-3.65,3.67.11,12,.06,24,0,36,0,1.67.77,3.71-2.45,3.63-2.95-.07-2.2-1.9-2.27-3.47a22.36,22.36,0,0,1,0-3.17c.22-2.31-.89-2.91-3-2.88-7.26.09-14.52.17-21.77,0-3.05-.09-3.78,1.05-3.76,3.9.11,14.51.05,29,.05,43.53v15c0,1.29.32,2.69-1.85,2.55-1.29-.09-3.41-.64-3.27,1.59.15,2.42,2.41,1.49,3.79,1.49C385.78,349.9,404.77,349.88,423.77,349.88Z"/><path class="cls-3" d="M454.4,313.07c0,10.14.08,20.29-.06,30.43,0,2.56.62,3.37,3.24,3.28,5.52-.21,11.06-.16,16.59,0,2.13.06,2.61-.64,2.6-2.67q-.11-31,0-62c0-2-.47-2.72-2.59-2.67q-8.49.22-17,0c-2.26-.06-2.87.65-2.84,2.87C454.46,292.52,454.4,302.8,454.4,313.07Z"/><path class="cls-3" d="M393.44,315.86c0-9.36-.06-18.71.05-28.07,0-2.18-.48-2.94-2.79-2.87-5.66.16-11.33.12-17,0-1.87,0-2.48.5-2.47,2.43q.11,28.47,0,56.93c0,1.88.52,2.5,2.43,2.46,5.67-.11,11.34-.14,17,0,2.25.06,2.85-.61,2.82-2.84C393.37,334.57,393.44,325.22,393.44,315.86Z"/><path class="cls-3" d="M427.13,299.22c0-14.77-.08-29.54.07-44.3,0-2.87-.58-4-3.67-3.81-5.26.27-10.54.15-15.82,0-2.07,0-3.09.33-3.07,2.77.12,11.47.09,22.94,0,34.41,0,2,.57,2.83,2.68,2.74,3.43-.14,6.87.14,10.28-.09,3.19-.21,4.34.71,4.3,4.14-.21,15.82-.15,31.65-.14,47.47,0,1.87-1,4.22,2.75,4.14,3.45-.08,2.57-2.22,2.58-4C427.15,328.23,427.13,313.72,427.13,299.22Z"/><path class="cls-3" d="M396.78,320.7c0,7.64.09,15.29,0,22.94-.05,2.36.48,3.23,3,3.14,5.39-.21,10.81-.13,16.21,0,1.85,0,2.52-.46,2.51-2.42q0-23.93.14-47.87c0-1.7-.53-2.31-2.25-2.28-5.67.07-11.34.11-17,0-2.18-.05-2.62.84-2.6,2.8C396.83,304.87,396.78,312.78,396.78,320.7Z"/><path class="cls-3" d="M430,323.45c0,6.72.09,13.44,0,20.16-.05,2.32.39,3.27,3,3.17,5.26-.22,10.54-.15,15.81,0,1.94.05,2.41-.59,2.4-2.45,0-14,0-27.94.11-41.91,0-2.23-.81-2.57-2.74-2.53-5,.12-10,.19-15,0-2.69-.11-3.65.57-3.56,3.43C430.18,310,430,316.73,430,323.45Z"/><path class="cls-3" d="M458.64,276.12h13.75c-.34-4.4-3.28-4.51-6.5-4.39S459,271,458.64,276.12Z"/><path class="cls-3" d="M457.51,317c.16,1.33-.49,3.31,1.58,3.44,2.28.14,1.66-2,1.62-3.22s.87-3.65-1.58-3.64C457.12,313.62,457.65,315.66,457.51,317Z"/><path class="cls-3" d="M473.34,306.89c-.21-1.3.56-3.35-1.67-3.25s-1.56,2.07-1.53,3.41-.62,3.32,1.65,3.23S473.07,308.15,473.34,306.89Z"/><path class="cls-3" d="M467.14,316.93c-.32-1.29.64-3.4-1.64-3.33-2,0-1.63,2-1.61,3.38s-.53,3.39,1.49,3.47C467.87,320.55,466.79,318.24,467.14,316.93Z"/><path class="cls-3" d="M470.09,337.16c.22,1.24-.58,3.29,1.7,3.2s1.45-2.12,1.48-3.41.6-3.33-1.62-3.25S470.26,335.79,470.09,337.16Z"/><path class="cls-3" d="M470.07,296.87c.19,1.52-.51,3.53,1.7,3.46s1.51-2.07,1.5-3.37.69-3.32-1.59-3.26S470.4,295.82,470.07,296.87Z"/><path class="cls-3" d="M457.52,287c.14,1.33-.47,3.32,1.52,3.42,2.52.12,1.6-2.15,1.67-3.5s.57-3.3-1.56-3.25S457.6,285.6,457.52,287Z"/><path class="cls-3" d="M467.13,287.14c-.32-1.3.71-3.57-1.73-3.49-1.95.06-1.53,2.05-1.52,3.4s-.46,3.26,1.58,3.35C467.7,290.49,466.86,288.44,467.13,287.14Z"/><path class="cls-3" d="M463.85,337c.2,1.24-.58,3.22,1.53,3.41,2.4.21,1.65-1.9,1.67-3.16s.72-3.34-1.37-3.52S463.91,335.47,463.85,337Z"/><path class="cls-3" d="M457.52,337c.19,1.21-.59,3.19,1.53,3.38,2.4.21,1.65-1.9,1.66-3.16s.72-3.34-1.36-3.52S457.57,335.46,457.52,337Z"/><path class="cls-3" d="M473.33,327c-.28-1.23.7-3.25-1.49-3.35s-1.73,1.85-1.69,3.17-.7,3.25,1.47,3.36S473.11,328.3,473.33,327Z"/><path class="cls-3" d="M470.11,317.12c.19,1.26-.58,3.27,1.55,3.33s1.64-2,1.59-3.25.79-3.64-1.64-3.56C469.64,313.7,470.24,315.74,470.11,317.12Z"/><path class="cls-3" d="M460.8,306.92c-.29-1.27.63-3.37-1.65-3.28-2.06.08-1.61,2-1.6,3.4s-.47,3.31,1.72,3.24S460.43,308.12,460.8,306.92Z"/><path class="cls-3" d="M463.85,307.13c.16,1.29-.42,3.28,1.8,3.15s1.34-2.17,1.39-3.43.65-3.33-1.6-3.2C463.4,303.76,464,305.72,463.85,307.13Z"/><path class="cls-3" d="M457.53,297.06c0,1.54-.27,3.48,1.85,3.27s1.32-2.22,1.33-3.52.67-3.05-1.3-3.13C456.89,293.59,457.74,295.78,457.53,297.06Z"/><path class="cls-3" d="M467.13,296.88c-.34-1.2.71-3.33-1.69-3.19-2.13.12-1.51,2.08-1.55,3.41s-.39,3.34,1.74,3.23S466.83,298.17,467.13,296.88Z"/><path class="cls-3" d="M470.09,286.92c.23,1.33-.6,3.37,1.55,3.45s1.62-1.95,1.63-3.27.62-3.36-1.47-3.44S470.24,285.59,470.09,286.92Z"/><path class="cls-3" d="M457.52,327.05c.1,1.39-.35,3.31,1.84,3.15s1.32-2.19,1.34-3.43.78-3.32-1.62-3.12C457,323.83,457.67,325.75,457.52,327.05Z"/><path class="cls-3" d="M463.84,327c.16,1.32-.45,3.27,1.74,3.23s1.45-2.09,1.45-3.32.84-3.29-1.51-3.23C463.4,323.7,464,325.63,463.84,327Z"/><path class="cls-3" d="M386.93,297.07c0,1.7,0,3.4,0,5.09,0,.85.32,1.62,1.24,1.74a1.56,1.56,0,0,0,1.86-1.56c.06-3.79,0-7.57,0-11.35,0-.89-.74-1.32-1.64-1.31s-1.37.67-1.39,1.52C386.9,293.15,386.93,295.11,386.93,297.07Z"/><path class="cls-3" d="M374.86,296.79c0,1.7,0,3.4,0,5.1,0,.9.11,1.93,1.35,2a1.59,1.59,0,0,0,1.78-1.68c.08-3.65.07-7.32,0-11a1.54,1.54,0,0,0-1.81-1.6c-1,.06-1.27.85-1.3,1.64-.07,1.82,0,3.66,0,5.49Z"/><path class="cls-3" d="M386.92,332.84c0,1.69,0,3.39,0,5.09,0,1,.26,1.83,1.5,1.81a1.42,1.42,0,0,0,1.59-1.38q.09-5.67,0-11.34a1.48,1.48,0,0,0-1.52-1.47c-1.11,0-1.57.78-1.58,1.81C386.91,329.19,386.93,331,386.92,332.84Z"/><path class="cls-3" d="M374.87,315.18c0,1.7,0,3.4,0,5.1,0,.94.27,1.86,1.52,1.84a1.47,1.47,0,0,0,1.54-1.47c.08-3.79.07-7.57,0-11.36a1.41,1.41,0,0,0-1.55-1.42c-1.27,0-1.5.87-1.53,1.82C374.83,311.52,374.87,313.35,374.87,315.18Z"/><path class="cls-3" d="M386.92,314.83c0,1.83,0,3.66,0,5.49,0,1,.37,1.84,1.58,1.78a1.52,1.52,0,0,0,1.51-1.51q.08-5.67,0-11.35c0-.87-.68-1.35-1.6-1.36a1.33,1.33,0,0,0-1.43,1.47c0,1.83,0,3.66,0,5.48Z"/><path class="cls-3" d="M374.86,332.89c0,1.69,0,3.39,0,5.08,0,1,.31,1.82,1.56,1.78a1.43,1.43,0,0,0,1.53-1.44c.06-3.77.07-7.55,0-11.32a1.52,1.52,0,0,0-3,0c-.07,2,0,3.91,0,5.87Z"/><path class="cls-3" d="M380.8,315c0,1.83-.06,3.66,0,5.48a1.56,1.56,0,0,0,1.76,1.66,1.46,1.46,0,0,0,1.34-1.64c0-3.65,0-7.31,0-11,0-.83-.28-1.56-1.3-1.62a1.56,1.56,0,0,0-1.81,1.6C380.74,311.3,380.8,313.13,380.8,315Z"/><path class="cls-3" d="M384,332.51v-5.09c0-1-.36-1.84-1.5-1.87a1.49,1.49,0,0,0-1.58,1.42c-.08,3.78-.07,7.56,0,11.33a1.45,1.45,0,0,0,1.54,1.44c1.26.07,1.54-.75,1.56-1.75C384,336.17,384,334.34,384,332.51Z"/><path class="cls-3" d="M380.76,296.88c0,1.57,0,3.14,0,4.7,0,1.11.21,2.21,1.55,2.3s1.62-1.05,1.63-2.14c0-3.4,0-6.79,0-10.19,0-.95-.17-1.86-1.44-1.87a1.57,1.57,0,0,0-1.7,1.72c-.06,1.83,0,3.65,0,5.48Z"/><path class="cls-3" d="M414.18,281.06c0,1.83-.06,3.66,0,5.48,0,1,.48,1.78,1.67,1.75s1.48-.93,1.49-1.87c0-3.52,0-7,0-10.56,0-1-.38-1.86-1.59-1.78s-1.52.93-1.56,1.9C414.14,277.67,414.18,279.37,414.18,281.06Z"/><path class="cls-3" d="M420.26,281.39v4.75c0,1.15.2,2.18,1.66,2.13,1.19,0,1.5-.88,1.5-1.9,0-3.43,0-6.86,0-10.29,0-1.06-.4-1.91-1.46-2-1.34-.07-1.71.94-1.7,2.12C420.27,278,420.26,279.67,420.26,281.39Z"/><path class="cls-3" d="M423.42,262.75c0-1.58,0-3.16,0-4.75,0-1.19-.39-2.18-1.72-2.09-1.06.08-1.45.94-1.44,2,0,3.43,0,6.86,0,10.29,0,1,.34,1.83,1.53,1.87s1.6-.73,1.61-1.78C423.43,266.45,423.42,264.6,423.42,262.75Z"/><path class="cls-3" d="M414.17,263.36c0,1.57-.05,3.14,0,4.7,0,1.13.43,2.11,1.81,2,1.22-.07,1.38-1,1.39-2q0-5.09,0-10.17c0-.94-.21-2-1.34-2.07-1.31-.1-1.82.87-1.85,2C414.14,259.71,414.17,261.54,414.17,263.36Z"/><path class="cls-3" d="M408.29,281.4c0,1.7,0,3.39,0,5.09,0,1,.24,1.84,1.51,1.79a1.45,1.45,0,0,0,1.56-1.41q.11-5.67,0-11.34a1.47,1.47,0,0,0-1.55-1.44c-1.12,0-1.53.81-1.54,1.84C408.29,277.75,408.3,279.58,408.29,281.4Z"/><path class="cls-3" d="M408.28,263.14c0,1.69,0,3.39,0,5.08,0,1,.2,1.86,1.45,1.85a1.58,1.58,0,0,0,1.7-1.73c0-3.52,0-7,0-10.56,0-1-.5-1.85-1.55-1.89-1.39,0-1.61,1.05-1.62,2.16C408.27,259.75,408.28,261.44,408.28,263.14Z"/><path class="cls-3" d="M412.78,317.2c.31,1.21-.58,3.32,1.58,3.26s1.69-2.19,1.73-3.64.21-3.3-1.83-3.13S413,315.87,412.78,317.2Z"/><path class="cls-3" d="M400.11,317c.3,1.3-.63,3.53,1.76,3.47,2-.06,1.54-2,1.56-3.4s.37-3.28-1.61-3.36C399.66,313.62,400.35,315.65,400.11,317Z"/><path class="cls-3" d="M406.41,317c.34,1.37-.55,3.48,1.62,3.43s1.69-2.18,1.73-3.64.21-3.29-1.83-3.13S406.78,315.9,406.41,317Z"/><path class="cls-3" d="M400.12,337.24c.33,1.19-.61,3.33,1.77,3.11,2-.19,1.49-2.12,1.53-3.47s.28-3.36-1.82-3.19S400.38,335.9,400.12,337.24Z"/><path class="cls-3" d="M406.44,337c.4,1.16-.72,3.26,1.51,3.36s1.8-1.84,1.8-3.21.48-3.32-1.56-3.43C406,333.58,406.71,335.65,406.44,337Z"/><path class="cls-3" d="M412.8,337.24c.26,1.14-.53,3,1.38,3.12,2.4.09,1.85-2,1.9-3.5s.25-3.36-1.83-3.17S413,335.9,412.8,337.24Z"/><path class="cls-3" d="M400.11,327.23c.31,1.27-.5,3.39,1.81,3.15,2-.21,1.5-2.15,1.49-3.51s.34-3.32-1.85-3.11S400.49,326,400.11,327.23Z"/><path class="cls-3" d="M406.45,326.92c.3,1.3-.62,3.36,1.5,3.47s1.85-1.82,1.8-3.23.53-3.27-1.57-3.4C405.83,323.62,406.78,325.72,406.45,326.92Z"/><path class="cls-3" d="M412.72,327c.39,1.41-.52,3.54,1.8,3.36,2-.16,1.58-2.09,1.56-3.46s.38-3.29-1.81-3.16S413.31,326,412.72,327Z"/><path class="cls-3" d="M412.76,307.06c.31,1.28-.5,3.19,1.47,3.22,2.44.05,1.78-2.1,1.85-3.54s.21-3.36-1.87-3.13S413.11,305.9,412.76,307.06Z"/><path class="cls-3" d="M406.44,306.89c.4,1.18-.72,3.26,1.51,3.39s1.79-1.84,1.79-3.2.5-3.32-1.54-3.45C405.94,303.48,406.73,305.57,406.44,306.89Z"/><path class="cls-3" d="M403.47,307.22c-.14-1.63.37-3.61-1.72-3.6s-1.57,2.06-1.54,3.36-.74,3.31,1.55,3.31S403.15,308.22,403.47,307.22Z"/><path class="cls-3" d="M436.12,326.94c-.22-1.24.6-3.29-1.7-3.17s-1.45,2.11-1.48,3.4-.61,3.32,1.62,3.22S436,328.31,436.12,326.94Z"/><path class="cls-3" d="M439.2,327c.18,1.55-.47,3.57,1.78,3.36,2-.19,1.43-2.16,1.43-3.49s.56-3.32-1.74-3.12S439.6,326,439.2,327Z"/><path class="cls-3" d="M439.22,307.05c.24,1.25-.61,3.31,1.68,3.21s1.47-2.09,1.5-3.4.56-3.33-1.64-3.24S439.42,305.71,439.22,307.05Z"/><path class="cls-3" d="M432.89,307.14c.19,1.29-.52,3.35,1.79,3.12,2.09-.21,1.34-2.2,1.39-3.51s.45-3.34-1.75-3.13S433.09,305.82,432.89,307.14Z"/><path class="cls-3" d="M448.69,306.77c0-1.46.22-3.23-1.6-3.16-2.46.1-1.5,2.32-1.57,3.69-.07,1.17-.58,3.06,1.46,3C449.45,310.19,448.43,308,448.69,306.77Z"/><path class="cls-3" d="M445.41,317.12c.29,1.39-.56,3.53,1.76,3.34,2-.17,1.47-2.15,1.5-3.52s.33-3.38-1.77-3.23S445.74,316,445.41,317.12Z"/><path class="cls-3" d="M445.44,336.91c.36,1.18-.79,3.25,1.4,3.44s1.85-1.76,1.83-3.14.57-3.32-1.46-3.51C445,333.49,445.62,335.54,445.44,336.91Z"/><path class="cls-3" d="M439.2,336.9c.29,1.33-.66,3.38,1.56,3.44s1.66-1.95,1.64-3.28.65-3.3-1.51-3.36S439.44,335.67,439.2,336.9Z"/><path class="cls-3" d="M432.89,337c.27,1.21-.69,3.27,1.51,3.35s1.69-1.92,1.67-3.25.65-3.31-1.49-3.39S433,335.62,432.89,337Z"/><path class="cls-3" d="M445.43,327c.29,1.28-.68,3.35,1.51,3.43s1.78-1.85,1.73-3.24.58-3.29-1.56-3.39C444.73,323.66,445.76,325.77,445.43,327Z"/><path class="cls-3" d="M432.9,317.26c.19,1.28-.51,3.35,1.72,3.17,2-.16,1.43-2.15,1.45-3.5s.45-3.36-1.7-3.2S433.07,315.9,432.9,317.26Z"/><path class="cls-3" d="M442.44,317c-.06-1.42.32-3.26-1.49-3.22-2.39,0-1.62,2.22-1.67,3.64,0,1.23-.43,3.1,1.43,3.07C443.11,320.39,442.21,318.2,442.44,317Z"/><path class="cls-4" d="M297.66,76.51c35.6,1.69,63.17,17.12,79.64,48.89,16.15,31.12,14.59,62.3-5,91.87-21.73,32.82-43.68,65.48-65.55,98.2-6.78,10.15-11.75,10.17-18.51.06C265.8,282,243.25,248.44,221,214.76c-36-54.3,1.37-131.57,66.22-137.34Zm-67.4,50.85c.33-.46.66-.92,1-1.39,0,0-.3-.22-.46-.34l-.56,1.67-.5.58Zm67.27,13.56a35.92,35.92,0,0,0-36.17,35.8,36.45,36.45,0,0,0,36.4,36.4c19.64-.06,35.8-16.45,35.81-36.32A35.86,35.86,0,0,0,297.53,140.92Zm-65.26-19.06,1.58,1.82c1.77-1.14,3.49-2.36,5.31-3.41,7.84-4.53,15.4-9.68,23.63-13.35,12.82-5.72,26.72-4.63,40.38-4.51,4.18,0,8.45-1,9-5.74s-3.66-6-7.42-6.71c-21.53-3.95-40.63,1.52-57.08,15.69C242.07,110.5,237.39,116.43,232.27,121.86Z"/><path class="cls-5" d="M298.85,102.76a66.39,66.39,0,0,1,66.72,66.41c0,36.79-29.95,67.13-66.29,67.23-37,.11-67.54-30.38-67.39-67.37C232,132.19,261.68,102.85,298.85,102.76Z"/><path class="cls-4" d="M232.27,121.86c5.12-5.43,9.8-11.36,15.42-16.21C264.14,91.48,283.24,86,304.77,90c3.76.69,8,2,7.42,6.71s-4.84,5.77-9,5.74c-13.66-.12-27.56-1.21-40.38,4.51-8.23,3.67-15.79,8.82-23.63,13.35-1.82,1-3.54,2.27-5.31,3.41Z"/><path class="cls-6" d="M230.2,127.3l.56-1.67c.16.12.47.33.46.34-.3.47-.63.93-1,1.39Z"/><path class="cls-6" d="M230.26,127.36l-.56.52.5-.58Z"/><line class="cls-7" x1="407.41" y1="215.87" x2="454.95" y2="236.51"/><rect class="cls-3" x="184.4" y="338.46" width="258.39" height="74.07"/><path class="cls-8" d="M450,243.66c-7.17-3.1-78-32.27-84.56-35.09-25.33,42-76.6,47.82-109.59,27.67-34.54-21.1-48.06-63.42-31.88-100.52,15.89-36.44,57-55.3,95.59-44,37.83,11,66.86,52.86,53.72,98.7,6.53,2.8,79.6,33.72,86.29,36.59m-140.41-2a61.32,61.32,0,1,0-79.56-34.65A61.1,61.1,0,0,0,319.17,225Z"/><polygon class="cls-8" points="485.57 211.73 477.57 235.07 530.9 259.07 539.1 231.73 485.57 211.73"/></g><rect class="cls-9" x="265.46" y="161.45" width="62.35" height="7.07" rx="3.54" ry="3.54" transform="translate(461.63 -131.65) rotate(90)"/><rect class="cls-9" x="265.46" y="161.45" width="62.35" height="7.07" rx="3.54" ry="3.54" transform="translate(593.28 329.98) rotate(-180)"/><path class="cls-10" d="M249,153.12s6.53-29.4,38.66-33.76"/><path class="cls-10" d="M247.39,161.42s-1,5.85,0,9.83"/></svg>